<?xml version="1.0" encoding="UTF-8" standalone="no"?>
<svg width="120px" height="60px" viewBox="0 0 120 60" version="1.1" xmlns="http://www.w3.org/2000/svg" xmlns:xlink="http://www.w3.org/1999/xlink" xmlns:sketch="http://www.bohemiancoding.com/sketch/ns">
    <!-- Generator: Sketch 3.3.3 (12081) - http://www.bohemiancoding.com/sketch -->
    <title>Artboard 31</title>
    <desc>Created with Sketch.</desc>
    <defs></defs>
    <g id="mockup-cores" stroke="none" stroke-width="1" fill="none" fill-rule="evenodd" sketch:type="MSPage">
        <g id="Artboard-26" sketch:type="MSArtboardGroup" transform="translate(-1887.000000, -2233.000000)"></g>
        <g id="Artboard-31" sketch:type="MSArtboardGroup" stroke="#000000">
            <g id="vai-svg" sketch:type="MSLayerGroup" transform="translate(20.063830, 3.000000)">
                <path d="M65.1567505,31.616498 L80.0585381,16.0761047 L65.1567505,0.535516482 L60.9289632,4.94448278 L68.887382,13.2433696 L50.2547762,13.2433696 L50.2547762,18.9088397 L68.887382,18.9088397 L60.9289632,27.2077265 L65.1567505,31.616498 Z" id="vai" stroke-width="1.27659571" sketch:type="MSShapeGroup"></path>
                <path d="M1.55744681,16.5933184 L0.921985816,16.5933184 L0.921985816,34.3067936 C0.921985816,35.8160134 1.12056738,36.4911907 2.1929078,37.5635312 L8.90496454,44.4344532 L9.18297872,44.4344532 L15.9347518,37.5635312 C16.9673759,36.4911907 17.1659574,35.8160134 17.1659574,34.3067936 L17.1659574,16.5933184 L16.5304965,16.5933184 L16.5304965,34.227361 C16.5304965,35.6968645 16.4510638,36.0543113 15.4184397,37.1266517 L9.06382979,43.6798432 L2.66950355,37.1266517 C1.63687943,36.0543113 1.55744681,35.6968645 1.55744681,34.227361 L1.55744681,16.5933184 Z M21.7333333,44.3947368 L21.7333333,33.6713326 L21.7333333,32.956439 L22.448227,32.956439 L35.9914894,32.956439 L36.706383,32.956439 L36.706383,44.3947368 L37.341844,44.3947368 L37.341844,21.2798432 C37.341844,19.6117581 36.4680851,18.4202688 35.0780142,17.5862262 C32.2978723,15.9181411 26.1815603,15.9181411 23.4014184,17.5862262 C22.0113475,18.4202688 21.1375887,19.6117581 21.1375887,21.2798432 L21.1375887,44.3947368 L21.7333333,44.3947368 Z M21.7333333,21.2798432 C21.7333333,19.8897723 22.5276596,18.8174319 23.6794326,18.1025383 C26.3007092,16.5138858 32.1390071,16.5138858 34.7602837,18.1025383 C35.9120567,18.8174319 36.7460993,19.8897723 36.706383,21.2798432 L36.706383,32.3606943 L35.9914894,32.3606943 L22.448227,32.3606943 L21.7333333,32.3606943 L21.7333333,21.2798432 L21.7333333,21.2798432 Z M42.1078014,16.5536021 L42.1078014,44.3947368 L42.7035461,44.3947368 L42.7035461,16.5536021 L42.1078014,16.5536021 Z" id="VAI" stroke-width="0.5" fill="#000000" sketch:type="MSShapeGroup"></path>
            </g>
        </g>
    </g>
</svg>