<?xml version="1.0" encoding="UTF-8" standalone="no"?>
<svg width="100px" height="50px" viewBox="0 0 100 50" version="1.1" xmlns="http://www.w3.org/2000/svg" xmlns:xlink="http://www.w3.org/1999/xlink" xmlns:sketch="http://www.bohemiancoding.com/sketch/ns">
    <!-- Generator: Sketch 3.3.3 (12081) - http://www.bohemiancoding.com/sketch -->
    <title>Artboard 27</title>
    <desc>Created with Sketch.</desc>
    <defs></defs>
    <g id="mockup-cores" stroke="none" stroke-width="1" fill="none" fill-rule="evenodd" sketch:type="MSPage">
        <g id="Artboard-27" sketch:type="MSArtboardGroup">
            <g id="logo" sketch:type="MSLayerGroup" transform="translate(8.000000, 7.000000)">
                <path d="M33.7602255,35.0665552 L42.4593162,25.9985436 L33.7602255,16.9304183 L31.2922057,19.5031047 L35.9380247,24.3456077 L25.0610256,24.3456077 L25.0610256,27.6514795 L35.9380247,27.6514795 L31.2922057,32.4939826 L33.7602255,35.0665552 Z" id="vem" fill="#FFFFFF" sketch:type="MSShapeGroup" transform="translate(33.760171, 25.998487) scale(-1, 1) translate(-33.760171, -25.998487) "></path>
                <path d="M37.8000547,18.1659183 L46.5,9.09701602 L37.8000547,0.028 L35.3317925,2.60093904 L39.9780679,7.44391776 L29.1000004,7.44391776 L29.1000004,10.7501143 L39.9780679,10.7501143 L35.3317925,15.593093 L37.8000547,18.1659183 Z" id="vai" stroke="#FFFFFF" stroke-width="0.8" sketch:type="MSShapeGroup"></path>
                <path d="M0.584,8.71391835 L0.2,8.71391835 L0.2,19.4179183 C0.2,20.3299183 0.32,20.7379183 0.968,21.3859183 L5.024,25.5379183 L5.192,25.5379183 L9.272,21.3859183 C9.896,20.7379183 10.016,20.3299183 10.016,19.4179183 L10.016,8.71391835 L9.632,8.71391835 L9.632,19.3699183 C9.632,20.2579183 9.584,20.4739183 8.96,21.1219183 L5.12,25.0819183 L1.256,21.1219183 C0.632,20.4739183 0.584,20.2579183 0.584,19.3699183 L0.584,8.71391835 Z M12.776,25.5139183 L12.776,19.0339183 L12.776,18.6019183 L13.208,18.6019183 L21.392,18.6019183 L21.824,18.6019183 L21.824,25.5139183 L22.208,25.5139183 L22.208,11.5459183 C22.208,10.5379183 21.68,9.81791835 20.84,9.31391835 C19.16,8.30591835 15.464,8.30591835 13.784,9.31391835 C12.944,9.81791835 12.416,10.5379183 12.416,11.5459183 L12.416,25.5139183 L12.776,25.5139183 Z M12.776,11.5459183 C12.776,10.7059183 13.256,10.0579183 13.952,9.62591835 C15.536,8.66591835 19.064,8.66591835 20.648,9.62591835 C21.344,10.0579183 21.848,10.7059183 21.824,11.5459183 L21.824,18.2419183 L21.392,18.2419183 L13.208,18.2419183 L12.776,18.2419183 L12.776,11.5459183 L12.776,11.5459183 Z M25.088,8.71391835 L25.088,23.9727169 L25.4883201,23.5311886 L25.48832,8.71391835 L25.088,8.71391835 Z" id="VAI" stroke="#FFFFFF" stroke-width="0.4" fill="#FFFFFF" sketch:type="MSShapeGroup"></path>
                <path d="M51.48,28.2585552 L55.344,24.8505552 C56.064,24.2025552 56.256,23.5785552 56.256,22.6665552 L56.256,11.2425552 L55.032,11.2425552 L55.032,22.6905552 C55.032,23.3145552 55.032,23.4585552 54.576,23.9145552 L51.24,26.8905552 L47.904,23.9145552 C47.424,23.4585552 47.424,23.3145552 47.424,22.6905552 L47.424,11.5971069 L46.2,12.7856446 L46.2,22.6665552 C46.2,23.5785552 46.392,24.2025552 47.112,24.8505552 L50.976,28.2585552 L51.48,28.2585552 Z M59.856,12.4425552 L67.584,12.4425552 L67.584,11.2425552 L58.656,11.2425552 L58.656,24.8265552 C58.656,27.1065552 61.104,28.0665552 63.144,28.0425552 L63.144,28.0665552 L67.584,28.0665552 L67.584,26.8425552 L63.144,26.8425552 C62.016,26.8425552 60.336,26.4585552 59.952,25.3305552 C59.784,24.8505552 59.856,21.0345552 59.856,20.2665552 L67.584,20.2665552 L67.584,19.0425552 L59.856,19.0425552 L59.856,12.4425552 Z M76.584,22.4505552 L71.496,11.2665552 L70.008,11.2665552 L70.008,28.0665552 L71.232,28.0665552 L71.232,14.6025552 L71.064,12.8985552 L71.136,12.8985552 L71.64,14.5065552 L76.104,24.0345552 L77.088,24.0345552 L81.552,14.5065552 L82.056,12.8985552 L82.128,12.8985552 L81.96,14.6025552 L81.96,28.0665552 L83.184,28.0665552 L83.184,11.2665552 L81.696,11.2665552 L76.584,22.4505552 Z" id="VEM" stroke="#FFFFFF" stroke-width="0.4" fill="#FFFFFF" sketch:type="MSShapeGroup"></path>
            </g>
        </g>
    </g>
</svg>