<?xml version="1.0" encoding="UTF-8" standalone="no"?>
<svg width="120px" height="60px" viewBox="0 0 120 60" version="1.1" xmlns="http://www.w3.org/2000/svg" xmlns:xlink="http://www.w3.org/1999/xlink" xmlns:sketch="http://www.bohemiancoding.com/sketch/ns">
    <!-- Generator: Sketch 3.3.3 (12081) - http://www.bohemiancoding.com/sketch -->
    <title>Artboard 31</title>
    <desc>Created with Sketch.</desc>
    <defs></defs>
    <g id="mockup-cores" stroke="none" stroke-width="1" fill="none" fill-rule="evenodd" sketch:type="MSPage">
        <g id="Artboard-26" sketch:type="MSArtboardGroup" transform="translate(-2045.000000, -2235.000000)"></g>
        <g id="Artboard-31" sketch:type="MSArtboardGroup" fill="#000000">
            <g id="vem-svg" sketch:type="MSLayerGroup" transform="translate(10.000000, 16.000000)">
                <path d="M15.6095437,37.4473684 L0.709219858,21.9085015 L15.6095437,6.36943966 L19.8369159,10.7779729 L11.8792787,19.0760446 L30.5100544,19.0760446 L30.5100544,24.7409583 L11.8792787,24.7409583 L19.8369159,33.03903 L15.6095437,37.4473684 Z" id="vem" sketch:type="MSShapeGroup"></path>
                <path d="M44.7659574,28.1598358 L51.1602837,22.5201194 C52.351773,21.447779 52.6695035,20.4151549 52.6695035,18.9059351 L52.6695035,0.000970511385 L50.6439716,0.000970511385 L50.6439716,18.9456514 C50.6439716,19.9782755 50.6439716,20.2165733 49.8893617,20.9711833 L44.3687943,25.896006 L38.848227,20.9711833 C38.0539007,20.2165733 38.0539007,19.9782755 38.0539007,18.9456514 L38.0539007,0.000970511385 L36.0283688,0.000970511385 L36.0283688,18.9059351 C36.0283688,20.4151549 36.3460993,21.447779 37.5375887,22.5201194 L43.9319149,28.1598358 L44.7659574,28.1598358 Z M58.6269504,1.98678611 L71.4156028,1.98678611 L71.4156028,0.000970511385 L56.6411348,0.000970511385 L56.6411348,22.4804031 C56.6411348,26.2534528 60.6921986,27.8421053 64.0680851,27.802389 L64.0680851,27.8421053 L71.4156028,27.8421053 L71.4156028,25.8165733 L64.0680851,25.8165733 C62.2014184,25.8165733 59.4212766,25.1811124 58.7858156,23.3144457 C58.5078014,22.5201194 58.6269504,16.2052258 58.6269504,14.9343038 L71.4156028,14.9343038 L71.4156028,12.9087719 L58.6269504,12.9087719 L58.6269504,1.98678611 Z M86.3092199,18.5484882 L77.8893617,0.0406868234 L75.4269504,0.0406868234 L75.4269504,27.8421053 L77.4524823,27.8421053 L77.4524823,5.5612542 L77.1744681,2.74139604 L77.293617,2.74139604 L78.1276596,5.40238895 L85.5148936,21.1697648 L87.1432624,21.1697648 L94.5304965,5.40238895 L95.364539,2.74139604 L95.4836879,2.74139604 L95.2056738,5.5612542 L95.2056738,27.8421053 L97.2312057,27.8421053 L97.2312057,0.0406868234 L94.7687943,0.0406868234 L86.3092199,18.5484882 Z" id="VEM" sketch:type="MSShapeGroup"></path>
            </g>
        </g>
    </g>
</svg>